<?xml version="1.0" standalone="no"?>
<!DOCTYPE svg PUBLIC "-//W3C//DTD SVG 20010904//EN"
 "http://www.w3.org/TR/2001/REC-SVG-20010904/DTD/svg10.dtd">
<svg version="1.0" xmlns="http://www.w3.org/2000/svg"
 width="336.000000pt" height="336.000000pt" viewBox="0 0 336.000000 336.000000"
 preserveAspectRatio="xMidYMid meet">
<metadata>
Created by potrace 1.11, written by Peter Selinger 2001-2013
</metadata>
<g transform="translate(0.000000,336.000000) scale(0.100000,-0.100000)"
fill="#000000" stroke="none">
<path d="M1570 2154 c-99 -246 -105 -261 -128 -319 -11 -27 -25 -51 -30 -53
-10 -3 -63 28 -267 158 -184 117 -303 190 -310 190 -12 0 -1 -53 44 -225 24
-88 51 -194 61 -235 10 -41 22 -84 26 -94 7 -17 4 -19 -32 -14 -21 4 -91 13
-154 22 -63 9 -151 23 -195 31 -109 20 -298 46 -302 41 -5 -4 71 -95 251 -300
70 -81 127 -148 125 -150 -4 -2 -76 -29 -266 -97 -29 -11 -77 -28 -105 -38
-29 -11 -88 -32 -130 -47 -43 -16 -78 -32 -78 -36 0 -5 138 -7 307 -6 l306 3
46 91 c75 148 138 227 256 323 117 94 192 137 335 190 78 29 269 61 366 61 94
0 270 -30 359 -62 268 -95 480 -283 596 -525 l39 -83 285 0 c157 0 285 4 285
9 0 10 -13 16 -180 75 -69 25 -163 59 -210 76 -47 18 -106 39 -133 49 l-47 16
41 50 c22 28 67 79 99 115 102 115 231 272 227 276 -4 5 -225 -23 -287 -36
-75 -16 -370 -53 -376 -47 -7 6 12 139 32 222 28 122 66 336 60 342 -3 3 -124
-73 -268 -169 -145 -96 -268 -178 -275 -182 -12 -6 -36 40 -113 209 -10 22
-38 83 -63 135 -24 52 -56 123 -72 158 -15 34 -33 62 -39 62 -7 0 -45 -84 -86
-186z"/>
<path d="M1490 1525 c-265 -53 -468 -183 -609 -389 -35 -51 -80 -144 -73 -151
7 -7 1757 -6 1764 1 11 10 -33 97 -88 175 -136 194 -358 327 -614 368 -88 14
-300 12 -380 -4z"/>
</g>
</svg>
